# xmcd
#
# Track frame offsets: 
#        150
#        28235
#        51265
#        81445
#        120672
#        138142
#        171132
#        191815
#        233285
#        255490
#
# Disc length: 3731 seconds
#
# Revision: 1
# Processed by: cddbd v1.5.2PL0 Copyright (c) Steve Scherf et al.
# Submitted via: ExactAudioCopy v0.99pb5
#
DISCID=800e910a
DTITLE=Jane Bunnett - Jane Bunnett and the Cuban Piano Masters
DYEAR=1996
DGENRE=Jazz
TTITLE0=Dialogos
TTITLE1=Son de la Loma
TTITLE2=Poems Of The Soul - Guantanamera
TTITLE3=Caleidoscopio
TTITLE4=Como Fue
TTITLE5=Fugado y Son Nocturno
TTITLE6=Social Club Buena Vista
TTITLE7=Miradas Furtivas
TTITLE8=Midnight Theme
TTITLE9=Tony y Jesusito
EXTD=YEAR: 1996
EXTT0=
EXTT1=
EXTT2=
EXTT3=
EXTT4=
EXTT5=
EXTT6=
EXTT7=
EXTT8=
EXTT9=
PLAYORDER=
